<svg width="224" height="184" viewBox="0 0 224 184" fill="none" xmlns="http://www.w3.org/2000/svg">
<g opacity="0.37207">
<path d="M139.847 102.73L153.847 148.73" stroke="#020303"/>
<path d="M143.847 102.73L157.847 148.73" stroke="#020303"/>
<path d="M148.847 100.73L162.847 146.73" stroke="#020303"/>
<path d="M152.847 98.7296L166.847 144.73" stroke="#020303"/>
<path d="M156.847 97.7296L170.847 143.73" stroke="#020303"/>
<path d="M161.847 96.7296L175.847 142.73" stroke="#020302"/>
<path d="M165.847 94.7296L179.847 140.73" stroke="#020302"/>
<path d="M170.847 93.7296L184.847 139.73" stroke="#020302"/>
<path d="M173.847 91.7296L187.847 137.73" stroke="#020302"/>
<path d="M177.847 90.7296L191.847 136.73" stroke="#020202"/>
<path d="M182.847 88.7296L196.847 134.73" stroke="#010202"/>
<path d="M187.847 88.7296L201.847 134.73" stroke="#010202"/>
<path d="M192.847 86.7296L206.847 132.73" stroke="#010202"/>
<path d="M195.847 84.7296L209.847 130.73" stroke="#010202"/>
<path fill-rule="evenodd" clip-rule="evenodd" d="M161.923 100.878C163.851 95.4105 164.847 89.6383 164.847 83.724C164.847 64.9367 154.698 47.9511 138.705 39.0469C131.3 34.9209 122.984 32.7296 114.341 32.7296C87.2485 32.7296 65.0172 54.3224 63.892 81.5728C63.8605 82.23 63.8467 82.9301 63.8467 83.724C63.8467 111.897 86.4518 134.73 114.341 134.73C124.313 134.73 133.856 131.804 142.014 126.398C151.202 120.312 158.221 111.344 161.923 100.878ZM138.163 40.0379C153.803 48.745 163.726 65.3531 163.726 83.724C163.726 89.5083 162.752 95.1522 160.867 100.498C157.248 110.73 150.384 119.5 141.399 125.452C133.423 130.738 124.093 133.598 114.341 133.598C87.0708 133.598 64.9673 111.272 64.9673 83.724C64.9673 82.947 64.9807 82.2646 65.0115 81.6237C66.1119 54.975 87.8499 33.8613 114.341 33.8613C122.793 33.8613 130.923 36.0036 138.163 40.0379Z" fill="#010202"/>
<path d="M19.3988 107.73L18.8467 106.741L149.295 32.7296L149.847 33.7177L19.3988 107.73Z" fill="#010202"/>
<path fill-rule="evenodd" clip-rule="evenodd" d="M179.847 75.3496L175.65 76.7296L150.847 2.10963L155.044 0.729614L179.847 75.3496Z" fill="#010202"/>
<path fill-rule="evenodd" clip-rule="evenodd" d="M10.3472 59.7296C15.5937 59.7296 19.8467 55.4764 19.8467 50.2296C19.8467 44.9828 15.5937 40.7296 10.3472 40.7296C5.10054 40.7296 0.84668 44.983 0.84668 50.2296C0.84668 55.4762 5.10054 59.7296 10.3472 59.7296ZM10.3472 41.8116C14.9962 41.8116 18.7647 45.5804 18.7647 50.2296C18.7647 54.8788 14.9962 58.6476 10.3472 58.6476C5.69804 58.6476 1.92862 54.8786 1.92862 50.2296C1.92862 45.5806 5.69804 41.8116 10.3472 41.8116Z" fill="#010202"/>
<path fill-rule="evenodd" clip-rule="evenodd" d="M38.8467 79.7296C38.8467 83.0432 36.1603 85.7296 32.8467 85.7296C29.5331 85.7296 26.8467 83.0432 26.8467 79.7296C26.8467 76.416 29.5331 73.7296 32.8467 73.7296C36.1603 73.7296 38.8467 76.416 38.8467 79.7296Z" fill="#010202"/>
<path fill-rule="evenodd" clip-rule="evenodd" d="M60.8467 51.2296C60.8467 58.1338 55.2497 63.7296 48.3467 63.7296C41.4425 63.7296 35.8467 58.1338 35.8467 51.2296C35.8467 44.3255 41.4425 38.7296 48.3467 38.7296C55.2497 38.7296 60.8467 44.3255 60.8467 51.2296Z" fill="#010202"/>
<path fill-rule="evenodd" clip-rule="evenodd" d="M119.847 183.73L223.847 125.926L153.922 96.7296L119.847 183.73ZM221.276 126.071L122.024 181.235L154.543 98.2065L221.276 126.071Z" fill="#010202"/>
<path fill-rule="evenodd" clip-rule="evenodd" d="M161.847 101.289C158.289 111.796 151.552 120.706 142.847 126.73L153.693 97.7296L161.847 101.289Z" fill="#010202"/>
</g>
</svg>
