<svg width="152" height="161" viewBox="0 0 152 161" fill="none" xmlns="http://www.w3.org/2000/svg">
<g opacity="0.400065">
<path fill-rule="evenodd" clip-rule="evenodd" d="M140.125 47.6326C140.419 60.0518 130.382 70.1034 117.708 70.0827C105.034 70.0621 94.5215 59.977 94.2279 47.5578C93.9343 35.1386 103.971 25.0871 116.645 25.1077C129.319 25.1284 139.831 35.2134 140.125 47.6326Z" fill="#231F20"/>
<path fill-rule="evenodd" clip-rule="evenodd" d="M140.724 96.0865L86.1415 2.80742L35.965 95.914L140.724 96.0865Z" fill="#C0CFD2"/>
<path fill-rule="evenodd" clip-rule="evenodd" d="M35.178 96.371L141.108 96.5771L85.8306 0.590008L35.178 96.371ZM36.8104 95.3909L85.8778 2.60729L139.425 95.5905L36.8104 95.3909Z" fill="#231F20"/>
<path fill-rule="evenodd" clip-rule="evenodd" d="M117.82 71.2603C130.658 71.285 140.823 61.2235 140.523 48.7881C140.223 36.3527 129.571 26.2512 116.733 26.2265C103.895 26.2019 93.73 36.2633 94.0301 48.6988C94.3302 61.1342 104.981 71.2357 117.82 71.2603ZM116.756 27.1806C129.05 27.2043 139.25 36.8779 139.538 48.7864C139.825 60.6949 130.091 70.33 117.796 70.3063C105.502 70.2826 95.3021 60.609 95.0149 48.7005C94.7276 36.792 104.462 27.1569 116.756 27.1806Z" fill="#231F20"/>
<path d="M0.295239 13.0918L0.776508 12.4158L102.81 147.139L102.328 147.815L0.295239 13.0918Z" fill="#231F20"/>
<path fill-rule="evenodd" clip-rule="evenodd" d="M47.1985 33.3367C49.5175 33.3412 51.3554 31.6163 51.3039 29.4839C51.2524 27.3516 49.3309 25.6195 47.012 25.615C44.6939 25.6106 42.8561 27.3356 42.9076 29.4678C42.9591 31.6 44.8805 33.3323 47.1985 33.3367ZM47.035 26.5603C48.7863 26.5637 50.2373 27.8718 50.2762 29.4821C50.315 31.0925 48.9269 32.3951 47.1757 32.3917C45.4253 32.3883 43.9744 31.0801 43.9355 29.4698C43.8967 27.8596 45.2846 26.5569 47.035 26.5603Z" fill="#231F20"/>
<path fill-rule="evenodd" clip-rule="evenodd" d="M86.1911 96.2874L52.5148 63.3589L35.0945 96.1877L86.1911 96.2874ZM83.8036 95.3032L36.7279 95.2114L52.7774 64.966L83.8036 95.3032Z" fill="#231F20"/>
<path d="M150.47 106.727L145.228 70.2388L143.821 70.3658L148.872 105.524L111.958 106.328L131.228 138.597L96.5255 159.426L97.3468 160.45L133.061 139.014L114.252 107.516L150.47 106.727Z" fill="#231F20"/>
<path fill-rule="evenodd" clip-rule="evenodd" d="M76.9961 122.919C77.1302 128.595 72.7538 133.19 67.2213 133.181C61.6878 133.172 57.0939 128.563 56.9597 122.886C56.8256 117.21 61.202 112.615 66.7355 112.624C72.268 112.633 76.8619 117.242 76.9961 122.919Z" fill="#231F20"/>
<path fill-rule="evenodd" clip-rule="evenodd" d="M76.3976 34.8554C76.5314 40.5192 72.598 45.1044 67.6123 45.0965C62.6258 45.0886 58.4755 40.4905 58.3418 34.8267C58.208 29.1629 62.1414 24.5777 67.128 24.5857C72.1136 24.5936 76.2639 29.1916 76.3976 34.8554Z" stroke="#231F20" stroke-width="2"/>
<line y1="-1" x2="127.16" y2="-1" transform="matrix(-0.766208 0.626227 -0.559263 -0.840585 120.226 10.1096)" stroke="black" stroke-width="2"/>
</g>
</svg>
